<?xml version="1.0" encoding="UTF-8"?>
<svg xmlns="http://www.w3.org/2000/svg" xmlns:xlink="http://www.w3.org/1999/xlink" width="1190pt" height="1684pt" viewBox="0 0 1190 1684" version="1.2">
<g id="surface2">
<path style="fill:none;stroke-width:0.96;stroke-linecap:butt;stroke-linejoin:miter;stroke:rgb(0%,0%,0%);stroke-opacity:1;stroke-miterlimit:1000;" d="M 36.357422 760.042969 C 37.142578 760.828125 38.089844 761.220703 39.199219 761.220703 L 556.050781 761.220703 C 557.160156 761.220703 558.107422 760.828125 558.892578 760.042969 C 559.677734 759.257812 560.070312 758.310547 560.070312 757.199219 L 560.070312 698.199219 C 560.070312 697.089844 559.677734 696.142578 558.892578 695.357422 C 558.107422 694.572266 557.160156 694.179688 556.050781 694.179688 L 39.199219 694.179688 C 38.089844 694.179688 37.142578 694.572266 36.357422 695.357422 C 35.572266 696.142578 35.179688 697.089844 35.179688 698.199219 L 35.179688 757.199219 C 35.179688 758.310547 35.572266 759.257812 36.357422 760.042969 Z M 36.357422 760.042969 " transform="matrix(2,0,0,-2,0,1684)"/>
<path style="fill:none;stroke-width:0.96;stroke-linecap:butt;stroke-linejoin:miter;stroke:rgb(0%,0%,0%);stroke-opacity:1;stroke-miterlimit:1000;" d="M 28.679688 57.230469 L 566.320312 57.230469 L 566.320312 798.070312 L 28.679688 798.070312 Z M 28.679688 57.230469 " transform="matrix(2,0,0,-2,0,1684)"/>
<path style="fill:none;stroke-width:0.48;stroke-linecap:butt;stroke-linejoin:miter;stroke:rgb(0%,0%,0%);stroke-opacity:1;stroke-miterlimit:1000;" d="M 490.640625 728.240234 L 538.560547 728.240234 L 538.560547 742.210938 L 490.640625 742.210938 Z M 490.640625 728.240234 " transform="matrix(2,0,0,-2,0,1684)"/>
<path style="fill:none;stroke-width:0.48;stroke-linecap:butt;stroke-linejoin:miter;stroke:rgb(0%,0%,0%);stroke-opacity:1;stroke-miterlimit:1000;" d="M 436.640625 728.240234 L 484.560547 728.240234 L 484.560547 742.210938 L 436.640625 742.210938 Z M 436.640625 728.240234 " transform="matrix(2,0,0,-2,0,1684)"/>
<path style="fill:none;stroke-width:0.48;stroke-linecap:butt;stroke-linejoin:miter;stroke:rgb(0%,0%,0%);stroke-opacity:1;stroke-miterlimit:10;" d="M 484.339844 734.560547 L 490.339844 734.560547 " transform="matrix(2,0,0,-2,0,1684)"/>
<path style="fill:none;stroke-width:0.48;stroke-linecap:butt;stroke-linejoin:miter;stroke:rgb(0%,0%,0%);stroke-opacity:1;stroke-miterlimit:1000;" d="M 418.640625 728.240234 L 430.560547 728.240234 L 430.560547 742.210938 L 418.640625 742.210938 Z M 418.640625 728.240234 " transform="matrix(2,0,0,-2,0,1684)"/>
<path style="fill:none;stroke-width:0.48;stroke-linecap:butt;stroke-linejoin:miter;stroke:rgb(0%,0%,0%);stroke-opacity:1;stroke-miterlimit:10;" d="M 429.980469 734.560547 L 436.339844 734.560547 " transform="matrix(2,0,0,-2,0,1684)"/>
<path style="fill:none;stroke-width:0.48;stroke-linecap:butt;stroke-linejoin:miter;stroke:rgb(0%,0%,0%);stroke-opacity:1;stroke-miterlimit:1000;" d="M 544.640625 728.289062 L 556.660156 728.289062 L 556.660156 742.359375 L 544.640625 742.359375 Z M 544.640625 728.289062 " transform="matrix(2,0,0,-2,0,1684)"/>
<path style="fill:none;stroke-width:0.48;stroke-linecap:butt;stroke-linejoin:miter;stroke:rgb(0%,0%,0%);stroke-opacity:1;stroke-miterlimit:10;" d="M 538.580078 734.919922 L 544.580078 734.919922 " transform="matrix(2,0,0,-2,0,1684)"/>
<path style="fill:none;stroke-width:0.48;stroke-linecap:butt;stroke-linejoin:miter;stroke:rgb(0%,0%,0%);stroke-opacity:1;stroke-miterlimit:1000;" d="M 392.539062 744.390625 L 440.560547 744.390625 L 440.560547 758.359375 L 392.539062 758.359375 Z M 392.539062 744.390625 " transform="matrix(2,0,0,-2,0,1684)"/>
<path style="fill:none;stroke-width:0.48;stroke-linecap:butt;stroke-linejoin:miter;stroke:rgb(0%,0%,0%);stroke-opacity:1;stroke-miterlimit:1000;" d="M 374.539062 744.390625 L 386.460938 744.390625 L 386.460938 758.359375 L 374.539062 758.359375 Z M 374.539062 744.390625 " transform="matrix(2,0,0,-2,0,1684)"/>
<path style="fill:none;stroke-width:0.48;stroke-linecap:butt;stroke-linejoin:miter;stroke:rgb(0%,0%,0%);stroke-opacity:1;stroke-miterlimit:10;" d="M 507.259766 751.119141 L 513.259766 751.119141 M 386.300781 751.240234 L 392.300781 751.240234 " transform="matrix(2,0,0,-2,0,1684)"/>
<path style="fill:none;stroke-width:0.48;stroke-linecap:butt;stroke-linejoin:miter;stroke:rgb(0%,0%,0%);stroke-opacity:1;stroke-miterlimit:10;" d="M 441.380859 751.359375 L 447.380859 751.359375 " transform="matrix(2,0,0,-2,0,1684)"/>
<path style="fill:none;stroke-width:0.48;stroke-linecap:butt;stroke-linejoin:miter;stroke:rgb(0%,0%,0%);stroke-opacity:1;stroke-miterlimit:1000;" d="M 447.089844 744.439453 L 507.560547 744.439453 L 507.560547 758.710938 L 447.089844 758.710938 Z M 447.089844 744.439453 " transform="matrix(2,0,0,-2,0,1684)"/>
<path style="fill:none;stroke-width:0.48;stroke-linecap:butt;stroke-linejoin:miter;stroke:rgb(0%,0%,0%);stroke-opacity:1;stroke-miterlimit:10;" d="M 537.859375 751.359375 L 543.859375 751.359375 " transform="matrix(2,0,0,-2,0,1684)"/>
<path style="fill:none;stroke-width:0.48;stroke-linecap:butt;stroke-linejoin:miter;stroke:rgb(0%,0%,0%);stroke-opacity:1;stroke-miterlimit:1000;" d="M 513.089844 758.460938 L 537.560547 758.460938 L 537.560547 744.939453 L 513.089844 744.939453 Z M 544.539062 757.609375 L 556.560547 757.609375 L 556.560547 745.589844 L 544.539062 745.589844 Z M 544.539062 757.609375 " transform="matrix(2,0,0,-2,0,1684)"/>
<path style="fill:none;stroke-width:0.96;stroke-linecap:butt;stroke-linejoin:miter;stroke:rgb(0%,0%,0%);stroke-opacity:1;stroke-miterlimit:1000;" d="M 36.90625 691.292969 C 37.691406 692.078125 38.640625 692.470703 39.75 692.470703 L 556.599609 692.470703 C 557.710938 692.470703 558.658203 692.078125 559.443359 691.292969 C 560.228516 690.507812 560.619141 689.560547 560.619141 688.449219 L 560.619141 581.400391 C 560.619141 580.289062 560.228516 579.341797 559.443359 578.556641 C 558.658203 577.773438 557.710938 577.380859 556.599609 577.380859 L 39.75 577.380859 C 38.640625 577.380859 37.691406 577.773438 36.90625 578.556641 C 36.121094 579.341797 35.730469 580.289062 35.730469 581.400391 L 35.730469 688.449219 C 35.730469 689.560547 36.121094 690.507812 36.90625 691.292969 Z M 36.90625 691.292969 " transform="matrix(2,0,0,-2,0,1684)"/>
<path style="fill:none;stroke-width:0.96;stroke-linecap:butt;stroke-linejoin:miter;stroke:rgb(0%,0%,0%);stroke-opacity:1;stroke-miterlimit:1000;" d="M 77.179688 615.320312 L 137.419922 615.320312 L 137.419922 601.480469 L 77.179688 601.480469 Z M 36.90625 574.642578 C 37.691406 575.427734 38.640625 575.820312 39.75 575.820312 L 556.599609 575.820312 C 557.710938 575.820312 558.658203 575.427734 559.443359 574.642578 C 560.228516 573.857422 560.619141 572.910156 560.619141 571.800781 L 560.619141 161.199219 C 560.619141 160.089844 560.228516 159.142578 559.443359 158.357422 C 558.658203 157.572266 557.710938 157.179688 556.599609 157.179688 L 39.75 157.179688 C 38.640625 157.179688 37.691406 157.572266 36.90625 158.357422 C 36.121094 159.142578 35.730469 160.089844 35.730469 161.199219 L 35.730469 571.800781 C 35.730469 572.910156 36.121094 573.857422 36.90625 574.642578 Z M 36.90625 574.642578 " transform="matrix(2,0,0,-2,0,1684)"/>
<path style="fill:none;stroke-width:0.96;stroke-linecap:butt;stroke-linejoin:miter;stroke:rgb(0%,0%,0%);stroke-opacity:1;stroke-miterlimit:10;" d="M 35.300781 547.359375 L 560.300781 547.359375 " transform="matrix(2,0,0,-2,0,1684)"/>
<path style="fill:none;stroke-width:0.96;stroke-linecap:butt;stroke-linejoin:miter;stroke:rgb(0%,0%,0%);stroke-opacity:1;stroke-miterlimit:10;" d="M 327.259766 576.519531 L 327.259766 197.800781 M 404.900391 576.519531 L 404.900391 175.960938 M 489.859375 576.519531 L 489.859375 175.960938 " transform="matrix(2,0,0,-2,0,1684)"/>
<path style="fill:none;stroke-width:0.48;stroke-linecap:butt;stroke-linejoin:miter;stroke:rgb(0%,0%,0%);stroke-opacity:1;stroke-miterlimit:10;" d="M 546.380859 547.240234 L 546.380859 175.960938 M 474.980469 547.240234 L 474.980469 175.960938 " transform="matrix(2,0,0,-2,0,1684)"/>
<path style="fill:none;stroke-width:0.96;stroke-linecap:butt;stroke-linejoin:miter;stroke:rgb(0%,0%,0%);stroke-opacity:1;stroke-miterlimit:10;" d="M 35.300781 196.359375 L 561.140625 196.359375 M 404.300781 177.160156 L 561.140625 177.160156 " transform="matrix(2,0,0,-2,0,1684)"/>
<path style="fill:none;stroke-width:0.48;stroke-linecap:butt;stroke-linejoin:miter;stroke:rgb(0%,0%,0%);stroke-opacity:1;stroke-miterlimit:10;" d="M 404.900391 178.720703 L 559.939453 178.720703 " transform="matrix(2,0,0,-2,0,1684)"/>
<path style="fill:none;stroke-width:0.48;stroke-linecap:butt;stroke-linejoin:miter;stroke:rgb(0%,0%,0%);stroke-opacity:1;stroke-miterlimit:1000;" d="M 209.539062 602.089844 L 221.009766 602.089844 L 221.009766 613.560547 L 209.539062 613.560547 Z M 209.539062 602.089844 " transform="matrix(2,0,0,-2,0,1684)"/>
<path style="fill:none;stroke-width:0.48;stroke-linecap:butt;stroke-linejoin:miter;stroke:rgb(0%,0%,0%);stroke-opacity:1;stroke-miterlimit:1000;" d="M 287.490234 602.089844 L 298.960938 602.089844 L 298.960938 613.560547 L 287.490234 613.560547 Z M 287.490234 602.089844 " transform="matrix(2,0,0,-2,0,1684)"/>
<path style="fill:none;stroke-width:0.48;stroke-linecap:butt;stroke-linejoin:miter;stroke:rgb(0%,0%,0%);stroke-opacity:1;stroke-miterlimit:1000;" d="M 395.240234 602.089844 L 406.710938 602.089844 L 406.710938 613.560547 L 395.240234 613.560547 Z M 395.240234 602.089844 " transform="matrix(2,0,0,-2,0,1684)"/>
<path style="fill:none;stroke-width:0.48;stroke-linecap:butt;stroke-linejoin:miter;stroke:rgb(0%,0%,0%);stroke-opacity:1;stroke-miterlimit:1000;" d="M 472.339844 602.089844 L 483.810547 602.089844 L 483.810547 613.560547 L 472.339844 613.560547 Z M 472.339844 602.089844 " transform="matrix(2,0,0,-2,0,1684)"/>
<path style="fill:none;stroke-width:0.48;stroke-linecap:butt;stroke-linejoin:miter;stroke:rgb(0%,0%,0%);stroke-opacity:1;stroke-miterlimit:1000;" d="M 209.539062 583.640625 L 221.009766 583.640625 L 221.009766 595.109375 L 209.539062 595.109375 Z M 209.539062 583.640625 " transform="matrix(2,0,0,-2,0,1684)"/>
<path style="fill:none;stroke-width:0.48;stroke-linecap:butt;stroke-linejoin:miter;stroke:rgb(0%,0%,0%);stroke-opacity:1;stroke-miterlimit:1000;" d="M 287.490234 583.640625 L 298.960938 583.640625 L 298.960938 595.109375 L 287.490234 595.109375 Z M 287.490234 583.640625 " transform="matrix(2,0,0,-2,0,1684)"/>
<path style="fill:none;stroke-width:0.48;stroke-linecap:butt;stroke-linejoin:miter;stroke:rgb(0%,0%,0%);stroke-opacity:1;stroke-miterlimit:1000;" d="M 395.240234 583.640625 L 406.710938 583.640625 L 406.710938 595.109375 L 395.240234 595.109375 Z M 395.240234 583.640625 " transform="matrix(2,0,0,-2,0,1684)"/>
<path style=" stroke:none;fill-rule:nonzero;fill:rgb(79.998779%,79.998779%,79.998779%);fill-opacity:1;" d="M 364.800781 1366.101562 L 1113.699219 1366.101562 L 1113.699219 1332.898438 L 364.800781 1332.898438 Z M 364.800781 1366.101562 "/>
<path style="fill:none;stroke-width:0.48;stroke-linecap:butt;stroke-linejoin:miter;stroke:rgb(0%,0%,0%);stroke-opacity:1;stroke-miterlimit:1000;" d="M 491.189453 656.689453 L 539.109375 656.689453 L 539.109375 670.660156 L 491.189453 670.660156 Z M 491.189453 656.689453 " transform="matrix(2,0,0,-2,0,1684)"/>
<path style="fill:none;stroke-width:0.48;stroke-linecap:butt;stroke-linejoin:miter;stroke:rgb(0%,0%,0%);stroke-opacity:1;stroke-miterlimit:1000;" d="M 437.189453 656.689453 L 485.109375 656.689453 L 485.109375 670.660156 L 437.189453 670.660156 Z M 437.189453 656.689453 " transform="matrix(2,0,0,-2,0,1684)"/>
<path style="fill:none;stroke-width:0.48;stroke-linecap:butt;stroke-linejoin:miter;stroke:rgb(0%,0%,0%);stroke-opacity:1;stroke-miterlimit:10;" d="M 484.939453 663.039062 L 490.939453 663.039062 " transform="matrix(2,0,0,-2,0,1684)"/>
<path style="fill:none;stroke-width:0.48;stroke-linecap:butt;stroke-linejoin:miter;stroke:rgb(0%,0%,0%);stroke-opacity:1;stroke-miterlimit:1000;" d="M 419.189453 656.689453 L 431.109375 656.689453 L 431.109375 670.660156 L 419.189453 670.660156 Z M 419.189453 656.689453 " transform="matrix(2,0,0,-2,0,1684)"/>
<path style="fill:none;stroke-width:0.48;stroke-linecap:butt;stroke-linejoin:miter;stroke:rgb(0%,0%,0%);stroke-opacity:1;stroke-miterlimit:10;" d="M 430.580078 663.039062 L 436.939453 663.039062 " transform="matrix(2,0,0,-2,0,1684)"/>
<path style="fill:none;stroke-width:0.48;stroke-linecap:butt;stroke-linejoin:miter;stroke:rgb(0%,0%,0%);stroke-opacity:1;stroke-miterlimit:1000;" d="M 545.189453 656.740234 L 557.210938 656.740234 L 557.210938 670.810547 L 545.189453 670.810547 Z M 545.189453 656.740234 " transform="matrix(2,0,0,-2,0,1684)"/>
<path style="fill:none;stroke-width:0.48;stroke-linecap:butt;stroke-linejoin:miter;stroke:rgb(0%,0%,0%);stroke-opacity:1;stroke-miterlimit:10;" d="M 539.060547 663.400391 L 545.060547 663.400391 " transform="matrix(2,0,0,-2,0,1684)"/>
<path style="fill:none;stroke-width:0.48;stroke-linecap:butt;stroke-linejoin:miter;stroke:rgb(0%,0%,0%);stroke-opacity:1;stroke-miterlimit:1000;" d="M 393.089844 675.689453 L 441.109375 675.689453 L 441.109375 689.660156 L 393.089844 689.660156 Z M 393.089844 675.689453 " transform="matrix(2,0,0,-2,0,1684)"/>
<path style="fill:none;stroke-width:0.48;stroke-linecap:butt;stroke-linejoin:miter;stroke:rgb(0%,0%,0%);stroke-opacity:1;stroke-miterlimit:1000;" d="M 375.089844 675.689453 L 387.009766 675.689453 L 387.009766 689.660156 L 375.089844 689.660156 Z M 375.089844 675.689453 " transform="matrix(2,0,0,-2,0,1684)"/>
<path style="fill:none;stroke-width:0.48;stroke-linecap:butt;stroke-linejoin:miter;stroke:rgb(0%,0%,0%);stroke-opacity:1;stroke-miterlimit:10;" d="M 507.859375 682.480469 L 513.859375 682.480469 M 386.900391 682.599609 L 392.900391 682.599609 " transform="matrix(2,0,0,-2,0,1684)"/>
<path style="fill:none;stroke-width:0.48;stroke-linecap:butt;stroke-linejoin:miter;stroke:rgb(0%,0%,0%);stroke-opacity:1;stroke-miterlimit:10;" d="M 441.859375 682.720703 L 447.859375 682.720703 " transform="matrix(2,0,0,-2,0,1684)"/>
<path style="fill:none;stroke-width:0.48;stroke-linecap:butt;stroke-linejoin:miter;stroke:rgb(0%,0%,0%);stroke-opacity:1;stroke-miterlimit:1000;" d="M 447.640625 675.740234 L 508.109375 675.740234 L 508.109375 690.009766 L 447.640625 690.009766 Z M 447.640625 675.740234 " transform="matrix(2,0,0,-2,0,1684)"/>
<path style="fill:none;stroke-width:0.48;stroke-linecap:butt;stroke-linejoin:miter;stroke:rgb(0%,0%,0%);stroke-opacity:1;stroke-miterlimit:10;" d="M 538.339844 682.720703 L 544.339844 682.720703 " transform="matrix(2,0,0,-2,0,1684)"/>
<path style="fill:none;stroke-width:0.48;stroke-linecap:butt;stroke-linejoin:miter;stroke:rgb(0%,0%,0%);stroke-opacity:1;stroke-miterlimit:1000;" d="M 513.640625 689.759766 L 538.109375 689.759766 L 538.109375 676.240234 L 513.640625 676.240234 Z M 545.089844 689.759766 L 557.109375 689.759766 L 557.109375 676.140625 L 545.089844 676.140625 Z M 545.089844 689.759766 " transform="matrix(2,0,0,-2,0,1684)"/>
<path style="fill:none;stroke-width:0.48;stroke-linecap:butt;stroke-linejoin:miter;stroke:rgb(0%,0%,0%);stroke-opacity:1;stroke-miterlimit:1000;" d="M 82.890625 119.740234 L 94.359375 119.740234 L 94.359375 131.210938 L 82.890625 131.210938 Z M 82.890625 119.740234 " transform="matrix(2,0,0,-2,0,1684)"/>
<path style="fill:none;stroke-width:0.48;stroke-linecap:butt;stroke-linejoin:miter;stroke:rgb(0%,0%,0%);stroke-opacity:1;stroke-miterlimit:1000;" d="M 175.839844 119.740234 L 187.310547 119.740234 L 187.310547 131.210938 L 175.839844 131.210938 Z M 175.839844 119.740234 " transform="matrix(2,0,0,-2,0,1684)"/>
<path style="fill:none;stroke-width:0.48;stroke-linecap:butt;stroke-linejoin:miter;stroke:rgb(0%,0%,0%);stroke-opacity:1;stroke-miterlimit:1000;" d="M 283.539062 119.740234 L 295.009766 119.740234 L 295.009766 131.210938 L 283.539062 131.210938 Z M 283.539062 119.740234 " transform="matrix(2,0,0,-2,0,1684)"/>
<path style="fill:none;stroke-width:0.48;stroke-linecap:butt;stroke-linejoin:miter;stroke:rgb(0%,0%,0%);stroke-opacity:1;stroke-miterlimit:1000;" d="M 394.089844 119.740234 L 405.560547 119.740234 L 405.560547 131.210938 L 394.089844 131.210938 Z M 394.089844 119.740234 " transform="matrix(2,0,0,-2,0,1684)"/>
<path style="fill:none;stroke-width:0.96;stroke-linecap:butt;stroke-linejoin:miter;stroke:rgb(0%,0%,0%);stroke-opacity:1;stroke-miterlimit:1000;" d="M 36.90625 133.242188 C 37.691406 134.027344 38.640625 134.419922 39.75 134.419922 L 556.599609 134.419922 C 557.710938 134.419922 558.658203 134.027344 559.443359 133.242188 C 560.228516 132.457031 560.619141 131.509766 560.619141 130.400391 L 560.619141 120.949219 C 560.619141 119.839844 560.228516 118.892578 559.443359 118.107422 C 558.658203 117.322266 557.710938 116.929688 556.599609 116.929688 L 39.75 116.929688 C 38.640625 116.929688 37.691406 117.322266 36.90625 118.107422 C 36.121094 118.892578 35.730469 119.839844 35.730469 120.949219 L 35.730469 130.400391 C 35.730469 131.509766 36.121094 132.457031 36.90625 133.242188 Z M 36.90625 154.042969 C 37.691406 154.828125 38.640625 155.220703 39.75 155.220703 L 556.599609 155.220703 C 557.710938 155.220703 558.658203 154.828125 559.443359 154.042969 C 560.228516 153.257812 560.619141 152.310547 560.619141 151.199219 L 560.619141 140.849609 C 560.619141 139.740234 560.228516 138.792969 559.443359 138.007812 C 558.658203 137.222656 557.710938 136.830078 556.599609 136.830078 L 39.75 136.830078 C 38.640625 136.830078 37.691406 137.222656 36.90625 138.007812 C 36.121094 138.792969 35.730469 139.740234 35.730469 140.849609 L 35.730469 151.199219 C 35.730469 152.310547 36.121094 153.257812 36.90625 154.042969 Z M 36.90625 154.042969 " transform="matrix(2,0,0,-2,0,1684)"/>
<path style="fill:none;stroke-width:0.96;stroke-linecap:butt;stroke-linejoin:miter;stroke:rgb(0%,0%,0%);stroke-opacity:1;stroke-miterlimit:1000;" d="M 257.15625 113.59375 C 257.941406 114.376953 258.890625 114.769531 260 114.769531 L 555.699219 114.769531 C 556.810547 114.769531 557.757812 114.378906 558.542969 113.59375 C 559.328125 112.808594 559.720703 111.859375 559.720703 110.75 L 559.720703 63.400391 C 559.720703 62.289062 559.328125 61.341797 558.542969 60.556641 C 557.757812 59.773438 556.810547 59.380859 555.699219 59.380859 L 260 59.380859 C 258.890625 59.380859 257.941406 59.773438 257.15625 60.556641 C 256.371094 61.341797 255.980469 62.289062 255.980469 63.400391 L 255.980469 110.75 C 255.980469 111.859375 256.371094 112.808594 257.15625 113.59375 Z M 257.15625 113.59375 " transform="matrix(2,0,0,-2,0,1684)"/>
<path style="fill:none;stroke-width:0.96;stroke-linecap:butt;stroke-linejoin:miter;stroke:rgb(0%,0%,0%);stroke-opacity:1;stroke-miterlimit:1000;" d="M 36.90625 113.542969 C 37.691406 114.328125 38.640625 114.720703 39.75 114.720703 L 247.849609 114.720703 C 248.960938 114.720703 249.908203 114.328125 250.693359 113.542969 C 251.476562 112.757812 251.869141 111.810547 251.869141 110.699219 L 251.869141 63.400391 C 251.869141 62.289062 251.476562 61.341797 250.693359 60.556641 C 249.908203 59.773438 248.960938 59.380859 247.849609 59.380859 L 39.75 59.380859 C 38.640625 59.380859 37.691406 59.773438 36.90625 60.556641 C 36.121094 61.341797 35.730469 62.289062 35.730469 63.400391 L 35.730469 110.699219 C 35.730469 111.810547 36.121094 112.757812 36.90625 113.542969 Z M 36.90625 113.542969 " transform="matrix(2,0,0,-2,0,1684)"/>
<path style="fill:none;stroke-width:0.48;stroke-linecap:butt;stroke-linejoin:round;stroke:rgb(0%,0%,0%);stroke-opacity:1;stroke-miterlimit:10;" d="M 510.039062 78.625 C 510.039062 83.425781 511.734375 87.523438 515.125 90.917969 C 518.513672 94.3125 522.605469 96.009766 527.400391 96.009766 C 532.193359 96.009766 536.285156 94.3125 539.675781 90.917969 C 543.064453 87.523438 544.759766 83.425781 544.759766 78.625 C 544.759766 73.824219 543.064453 69.726562 539.675781 66.332031 C 536.285156 62.9375 532.193359 61.240234 527.400391 61.240234 C 522.605469 61.240234 518.515625 62.9375 515.125 66.332031 C 511.734375 69.726562 510.039062 73.824219 510.039062 78.625 Z M 510.039062 78.625 " transform="matrix(2,0,0,-2,0,1684)"/>
</g>
</svg>
