<?xml version="1.0" encoding="utf-8"?>
<!-- Generator: Adobe Illustrator 28.0.0, SVG Export Plug-In . SVG Version: 6.00 Build 0)  -->
<svg version="1.1" id="Layer_1" xmlns="http://www.w3.org/2000/svg" xmlns:xlink="http://www.w3.org/1999/xlink" x="0px" y="0px"
	 viewBox="0 0 1190 1684" style="enable-background:new 0 0 1190 1684;" xml:space="preserve">
<style type="text/css">
	.st0{fill:none;stroke:#000000;stroke-width:1.92;stroke-miterlimit:10;}
	.st1{fill:none;stroke:#8E8E8E;stroke-width:1.9299;stroke-miterlimit:10;}
	.st2{fill:none;stroke:#000000;stroke-width:0.96;stroke-miterlimit:10;}
	.st3{fill:none;stroke:#000000;stroke-width:0.96;stroke-miterlimit:20;}
	.st4{fill:none;stroke:#000000;stroke-width:1.915;stroke-miterlimit:10;}
	.st5{fill:none;stroke:#000000;stroke-width:1.92;stroke-miterlimit:20;}
	.st6{fill:none;stroke:#000000;stroke-width:0.9584;stroke-miterlimit:20;}
	.st7{fill:#E5E5E5;}
	.st8{fill:none;stroke:#000000;stroke-miterlimit:10;}
	.st9{fill:none;stroke:#000000;stroke-width:1.9388;stroke-miterlimit:10;}
	.st10{fill:none;stroke:#000000;stroke-width:0.96;stroke-linejoin:round;stroke-miterlimit:20;}
</style>
<g id="surface2">
	<path class="st0" d="M72.2,162.4c1.6-1.9,4.1-2.9,6.6-2.9c56.1,0,976.7,0,1032.9,0c2.5,0,4.9,1,6.6,2.9c1.3,1.5,1.9,3.2,1.9,5.2
		v117.6c0,2.5-1,5-2.9,6.6c-1.5,1.3-3.2,1.9-5.2,1.9l-1033.3,0c-2.5,0-5-1-6.6-2.9c-1.3-1.5-1.9-3.2-1.9-5.2v-118
		C70.4,165.6,71,163.9,72.2,162.4z"/>
	<path class="st1" d="M74.8,1584.9h1040.4c9.6,0,17.4-7.9,17.4-17.6V105.5c0-9.7-7.8-17.6-17.4-17.6H74.8c-9.6,0-17.4,7.9-17.4,17.6
		v1461.8C57.4,1577,65.2,1584.9,74.8,1584.9z"/>
	<path class="st2" d="M981.3,227.5h95.8v-27.9h-95.8V227.5z"/>
	<path class="st2" d="M873.3,227.5h95.8v-27.9h-95.8V227.5z"/>
	<path class="st3" d="M968.7,214.9h12"/>
	<path class="st2" d="M837.3,227.5h23.8v-27.9h-23.8V227.5z"/>
	<path class="st3" d="M860,214.9h12.7"/>
	<path class="st2" d="M1089.3,227.4h24v-28.1h-24V227.4z"/>
	<path class="st3" d="M1077.2,214.2h12"/>
	<path class="st2" d="M785.1,195.2h96v-27.9h-96V195.2z"/>
	<path class="st2" d="M749.1,195.2h23.8v-27.9h-23.8V195.2z"/>
	<path class="st3" d="M1014.5,181.8h12 M772.6,181.5h12"/>
	<path class="st3" d="M882.8,181.3h12"/>
	<path class="st2" d="M894.2,195.1h120.9v-28.5H894.2V195.1z"/>
	<path class="st3" d="M1075.7,181.3h12"/>
	<path class="st2" d="M1026.2,167.1h48.9v27h-48.9V167.1z M1089.1,168.8h24v24h-24V168.8z"/>
	<path class="st0" d="M73.8,301.4c1.6-1.6,3.5-2.4,5.7-2.4h1033.7c2.2,0,4.1,0.8,5.7,2.4s2.4,3.5,2.4,5.7v214.1
		c0,2.2-0.8,4.1-2.4,5.7c-1.6,1.6-3.5,2.4-5.7,2.4H79.5c-2.2,0-4.1-0.8-5.7-2.4c-1.6-1.6-2.4-3.5-2.4-5.7V307.1
		C71.5,304.9,72.2,303,73.8,301.4z"/>
	<path class="st4" d="M179.4,453.4h120.5V481H179.4V453.4z M73.8,537.7c1.6-1.6,3.5-2.3,5.7-2.3h1033.7c2.2,0,4.1,0.8,5.7,2.3
		s2.4,3.4,2.4,5.7v817c0,2.2-0.8,4.1-2.4,5.7c-1.6,1.6-3.5,2.3-5.7,2.3H79.5c-2.2,0-4.1-0.8-5.7-2.3c-1.6-1.6-2.4-3.4-2.4-5.7v-817
		C71.5,541.1,72.2,539.3,73.8,537.7z"/>
	<path class="st5" d="M70.6,589.3h1050"/>
	<path class="st5" d="M654.5,533v757.4 M809.8,535v794.7 M979.7,535v794.7"/>
	<path class="st6" d="M1092.8,589.5v737.8 M950,589.5v740.2"/>
	<path class="st5" d="M70.6,1291.3h1049.3 M809.6,1329.7h310.3"/>
	<path class="st3" d="M1119.9,1326.6"/>
	<path class="st3" d="M809.8,1326.6"/>
	<path class="st2" d="M419.1,479.8H442v-22.9h-22.9V479.8z"/>
	<path class="st2" d="M575,479.8h22.9v-22.9H575V479.8z"/>
	<path class="st2" d="M790.5,479.8h22.9v-22.9h-22.9V479.8z"/>
	<path class="st2" d="M944.7,479.8h22.9v-22.9h-22.9V479.8z"/>
	<path class="st2" d="M419.1,516.7H442v-22.9h-22.9V516.7z"/>
	<path class="st2" d="M575,516.7h22.9v-22.9H575V516.7z"/>
	<path class="st2" d="M790.5,516.7h22.9v-22.9h-22.9V516.7z"/>
	<path class="st7" d="M370.3,1363.1h738c3,0,5.5-2.4,5.5-5.5v-15.2c0-3-2.4-5.5-5.5-5.5h-738c-3,0-5.5,2.4-5.5,5.5v15.2
		C364.8,1360.7,367.2,1363.1,370.3,1363.1z"/>
	<path class="st2" d="M982.4,370.6h95.8v-27.9h-95.8V370.6z"/>
	<path class="st2" d="M874.4,370.6h95.8v-27.9h-95.8V370.6z"/>
	<path class="st3" d="M969.9,357.9h12"/>
	<path class="st2" d="M838.4,370.6h23.8v-27.9h-23.8V370.6z"/>
	<path class="st3" d="M861.2,357.9h12.7"/>
	<path class="st2" d="M1090.4,370.5h24v-28.1h-24V370.5z"/>
	<path class="st3" d="M1078.1,357.2h12"/>
	<path class="st2" d="M786.2,332.6h96v-27.9h-96V332.6z"/>
	<path class="st2" d="M750.2,332.6H774v-27.9h-23.8V332.6z"/>
	<path class="st3" d="M1015.7,319h12 M773.8,318.8h12"/>
	<path class="st3" d="M883.7,318.6h12"/>
	<path class="st2" d="M895.3,332.5h120.9V304H895.3V332.5z"/>
	<path class="st3" d="M1076.7,318.6h12"/>
	<path class="st2" d="M1027.3,304.5h48.9v27h-48.9V304.5z M1090.2,304.5h24v27.2h-24V304.5z"/>
	<path class="st2" d="M165.8,1444.5h22.9v-22.9h-22.9V1444.5z"/>
	<path class="st2" d="M351.7,1444.5h22.9v-22.9h-22.9V1444.5z"/>
	<path class="st2" d="M567.1,1444.5H590v-22.9h-22.9V1444.5z"/>
	<path class="st2" d="M788.2,1444.5h22.9v-22.9h-22.9V1444.5z"/>
	<path class="st8" d="M73.8,1418.5c1.6-1.6,3.5-2.4,5.7-2.4h1033.7c2.2,0,4.1,0.8,5.7,2.4s2.4,3.5,2.4,5.7v18.9
		c0,2.2-0.8,4.1-2.4,5.7s-3.5,2.4-5.7,2.4H79.5c-2.2,0-4.1-0.8-5.7-2.4s-2.4-3.5-2.4-5.7v-18.9C71.5,1422,72.2,1420.1,73.8,1418.5z
		 M73.8,1376.9c1.6-1.6,3.5-2.4,5.7-2.4h1033.7c2.2,0,4.1,0.8,5.7,2.4s2.4,3.5,2.4,5.7v20.7c0,2.2-0.8,4.1-2.4,5.7s-3.5,2.4-5.7,2.4
		H79.5c-2.2,0-4.1-0.8-5.7-2.4s-2.4-3.5-2.4-5.7v-20.7C71.5,1380.4,72.2,1378.5,73.8,1376.9z"/>
	<path class="st9" d="M514.3,1459.9c1.6-1.6,3.5-2.4,5.7-2.4h591.4c2.2,0,4.1,0.8,5.7,2.4c1.6,1.6,2.4,3.5,2.4,5.8v96.6
		c0,2.3-0.8,4.2-2.4,5.8c-1.6,1.6-3.5,2.4-5.7,2.4H520c-2.2,0-4.1-0.8-5.7-2.4c-1.6-1.6-2.4-3.5-2.4-5.8v-96.6
		C512,1463.4,512.7,1461.5,514.3,1459.9z"/>
	<path class="st9" d="M73.8,1460c1.6-1.6,3.5-2.4,5.7-2.4h416.2c2.2,0,4.1,0.8,5.7,2.4c1.6,1.6,2.4,3.5,2.4,5.8v96.5
		c0,2.3-0.8,4.2-2.4,5.8c-1.6,1.6-3.5,2.4-5.7,2.4H79.5c-2.2,0-4.1-0.8-5.7-2.4c-1.6-1.6-2.4-3.5-2.4-5.8v-96.5
		C71.5,1463.5,72.2,1461.6,73.8,1460z"/>
	<path class="st10" d="M1020.1,1523.8c0-9.6,3.4-17.8,10.2-24.6c6.8-6.8,15-10.2,24.6-10.2c9.6,0,17.8,3.4,24.6,10.2
		c6.8,6.8,10.2,15,10.2,24.6s-3.4,17.8-10.2,24.6c-6.8,6.8-15,10.2-24.6,10.2c-9.6,0-17.8-3.4-24.6-10.2
		S1020.1,1533.4,1020.1,1523.8z"/>
</g>
</svg>
