<?xml version="1.0" encoding="utf-8"?>
<!-- Generator: Adobe Illustrator 28.0.0, SVG Export Plug-In . SVG Version: 6.00 Build 0)  -->
<svg version="1.1" id="Layer_1" xmlns="http://www.w3.org/2000/svg" xmlns:xlink="http://www.w3.org/1999/xlink" x="0px" y="0px"
	 viewBox="0 0 1190 1684" style="enable-background:new 0 0 1190 1684;" xml:space="preserve">
<style type="text/css">
	.st0{fill:none;stroke:#000000;stroke-miterlimit:10;}
	.st1{fill:none;stroke:#8E8E8E;stroke-width:1.9299;stroke-miterlimit:10;}
	.st2{fill:none;stroke:#000000;stroke-width:0.96;stroke-miterlimit:10;}
	.st3{fill:none;stroke:#000000;stroke-width:0.96;stroke-miterlimit:20;}
	.st4{fill:none;stroke:#000000;stroke-width:0.972;stroke-miterlimit:10;}
	.st5{fill:none;stroke:#000000;stroke-width:1.915;stroke-miterlimit:10;}
	.st6{fill:none;stroke:#000000;stroke-width:1.92;stroke-miterlimit:20;}
	.st7{fill:none;stroke:#B2B2B2;stroke-width:0.9584;stroke-miterlimit:20;}
	.st8{fill:#F2F2F2;}
	.st9{fill:none;stroke:#000000;stroke-width:1.9388;stroke-miterlimit:10;}
	.st10{fill:none;stroke:#000000;stroke-width:0.96;stroke-linejoin:round;stroke-miterlimit:20;}
</style>
<g id="surface2">
	<path class="st0" d="M72.2,162.4c1.6-1.9,4.1-2.9,6.6-2.9c56.2,0,977.7,0,1034,0c2.5,0,4.9,1,6.6,2.9c1.3,1.5,1.9,3.2,1.9,5.2
		v117.6c0,2.5-1,5-2.9,6.6c-1.5,1.3-3.2,1.9-5.2,1.9H78.8c-2.5,0-5-1-6.6-2.9c-1.3-1.5-1.9-3.2-1.9-5.2v-118
		C70.4,165.6,71,163.9,72.2,162.4z"/>
	<path class="st1" d="M74.8,1584.9h1040.4c9.6,0,17.4-7.9,17.4-17.6V105.5c0-9.7-7.8-17.6-17.4-17.6H74.8c-9.6,0-17.4,7.9-17.4,17.6
		v1461.8C57.4,1577,65.2,1584.9,74.8,1584.9z"/>
	<path class="st2" d="M985.3,227.5h87.8c2.2,0,4-1.8,4-4v-19.9c0-2.2-1.8-4-4-4h-87.8c-2.2,0-4,1.8-4,4v19.9
		C981.3,225.7,983.1,227.5,985.3,227.5z"/>
	<path class="st2" d="M877.3,227.5h87.8c2.2,0,4-1.8,4-4v-19.9c0-2.2-1.8-4-4-4h-87.8c-2.2,0-4,1.8-4,4v19.9
		C873.3,225.7,875.1,227.5,877.3,227.5z"/>
	<path class="st3" d="M968.7,214.9h12"/>
	<path class="st2" d="M841.3,227.5h15.7c2.2,0,4-1.8,4-4v-19.8c0-2.2-1.8-4-4-4h-15.7c-2.2,0-4,1.8-4,4v19.8
		C837.3,225.7,839.1,227.5,841.3,227.5z"/>
	<path class="st3" d="M861,214.9h12.7"/>
	<path class="st2" d="M1093.3,227.4h16.1c2.2,0,4-1.8,4-4v-20.2c0-2.2-1.8-4-4-4h-16.1c-2.2,0-4,1.8-4,4v20.2
		C1089.3,225.6,1091.1,227.4,1093.3,227.4z"/>
	<path class="st3" d="M1077.2,214.2h12"/>
	<path class="st4" d="M788.1,195.2h89.9c1.7,0,3-1.4,3-3v-22.5c0-1.7-1.4-3-3-3h-89.9c-1.7,0-3,1.4-3,3v22.5
		C785.1,193.8,786.5,195.2,788.1,195.2z"/>
	<path class="st2" d="M752.1,195.2h17.7c1.7,0,3-1.4,3-3v-21.8c0-1.7-1.4-3-3-3h-17.7c-1.7,0-3,1.4-3,3v21.8
		C749.1,193.8,750.5,195.2,752.1,195.2z"/>
	<path class="st3" d="M1014.5,181.8h12 M772.6,181.5h12"/>
	<path class="st3" d="M881.8,181.3h12"/>
	<path class="st2" d="M897.2,195.1h114.8c1.7,0,3-1.4,3-3v-22.4c0-1.7-1.4-3-3-3H897.2c-1.7,0-3,1.4-3,3v22.4
		C894.2,193.7,895.6,195.1,897.2,195.1z"/>
	<path class="st3" d="M1075.7,181.3h13"/>
	<path class="st0" d="M73.8,301.4c1.6-1.6,3.5-2.4,5.7-2.4h1033.7c2.2,0,4.1,0.8,5.7,2.4s2.4,3.5,2.4,5.7v214.1
		c0,2.2-0.8,4.1-2.4,5.7c-1.6,1.6-3.5,2.4-5.7,2.4H79.5c-2.2,0-4.1-0.8-5.7-2.4c-1.6-1.6-2.4-3.5-2.4-5.7V307.1
		C71.5,304.9,72.2,303,73.8,301.4z"/>
	<path class="st5" d="M179.4,453.4h120.5V481H179.4V453.4z M73.8,537.7c1.6-1.6,3.5-2.3,5.7-2.3h1033.7c2.2,0,4.1,0.8,5.7,2.3
		s2.4,3.4,2.4,5.7v817c0,2.2-0.8,4.1-2.4,5.7s-3.5,2.3-5.7,2.3H79.5c-2.2,0-4.1-0.8-5.7-2.3c-1.6-1.6-2.4-3.4-2.4-5.7v-817
		C71.5,541.1,72.2,539.3,73.8,537.7z"/>
	<path class="st6" d="M70.6,589.3h1050"/>
	<path class="st6" d="M654.5,533v757.4 M809.8,535v794.7 M979.7,535v794.7"/>
	<path class="st7" d="M1089.8,589.5v737.8 M947,589.5v740.2"/>
	<path class="st6" d="M70.6,1291.3h1049.3 M809.6,1329.7h310.3"/>
	<path class="st3" d="M1119.9,1326.6"/>
	<path class="st3" d="M809.8,1326.6"/>
	<path class="st2" d="M419.1,479.8H442v-22.9h-22.9V479.8z"/>
	<path class="st2" d="M575,479.8h22.9v-22.9H575V479.8z"/>
	<path class="st2" d="M790.5,479.8h22.9v-22.9h-22.9V479.8z"/>
	<path class="st2" d="M944.7,479.8h22.9v-22.9h-22.9V479.8z"/>
	<path class="st2" d="M419.1,516.7H442v-22.9h-22.9V516.7z"/>
	<path class="st2" d="M575,516.7h22.9v-22.9H575V516.7z"/>
	<path class="st2" d="M790.5,516.7h22.9v-22.9h-22.9V516.7z"/>
	<path class="st8" d="M370.3,1363.1h738c3,0,5.5-2.4,5.5-5.5v-15.2c0-3-2.4-5.5-5.5-5.5h-738c-3,0-5.5,2.4-5.5,5.5v15.2
		C364.8,1360.7,367.2,1363.1,370.3,1363.1z"/>
	<path class="st2" d="M878.5,370.6h87.6c2.3,0,4.1-1.8,4.1-4.1v-19.7c0-2.3-1.8-4.1-4.1-4.1h-87.6c-2.3,0-4.1,1.8-4.1,4.1v19.7
		C874.4,368.8,876.2,370.6,878.5,370.6z"/>
	<path class="st3" d="M969.9,357.9h12"/>
	<path class="st2" d="M842.5,370.6h15.6c2.3,0,4.1-1.8,4.1-4.1v-19.7c0-2.3-1.8-4.1-4.1-4.1h-15.6c-2.3,0-4.1,1.8-4.1,4.1v19.7
		C838.4,368.8,840.2,370.6,842.5,370.6z"/>
	<path class="st3" d="M861.2,357.9h12.7"/>
	<path class="st2" d="M1094.5,370.5h15.8c2.3,0,4.1-1.8,4.1-4.1v-19.9c0-2.3-1.8-4.1-4.1-4.1h-15.8c-2.3,0-4.1,1.8-4.1,4.1v19.9
		C1090.4,368.7,1092.2,370.5,1094.5,370.5z"/>
	<path class="st3" d="M1078.1,357.2h12"/>
	<path class="st2" d="M790.7,332.6h87c2.5,0,4.5-2,4.5-4.5v-18.9c0-2.5-2-4.5-4.5-4.5h-87c-2.5,0-4.5,2-4.5,4.5v18.9
		C786.2,330.6,788.2,332.6,790.7,332.6z"/>
	<path class="st2" d="M754.7,332.6h14.8c2.5,0,4.5-2,4.5-4.5v-18.9c0-2.5-2-4.5-4.5-4.5h-14.8c-2.5,0-4.5,2-4.5,4.5v18.9
		C750.2,330.6,752.2,332.6,754.7,332.6z"/>
	<path class="st3" d="M1015.7,319h12 M773.8,318.8h12"/>
	<path class="st3" d="M881.8,318.6h13.9"/>
	<path class="st2" d="M899.8,332.5h111.9c2.5,0,4.5-2,4.5-4.5v-19.5c0-2.5-2-4.5-4.5-4.5H899.8c-2.5,0-4.5,2-4.5,4.5V328
		C895.3,330.5,897.3,332.5,899.8,332.5z"/>
	<path class="st3" d="M1076.7,318.6h12"/>
	<path class="st2" d="M1031.8,304.5h39.9c2.5,0,4.5,2,4.5,4.5v18c0,2.5-2,4.5-4.5,4.5h-39.9c-2.5,0-4.5-2-4.5-4.5v-18
		C1027.3,306.5,1029.3,304.5,1031.8,304.5z M1094.7,304.5h15c2.5,0,4.5,2,4.5,4.5v18.2c0,2.5-2,4.5-4.5,4.5h-15
		c-2.5,0-4.5-2-4.5-4.5V309C1090.2,306.5,1092.2,304.5,1094.7,304.5z"/>
	<path class="st2" d="M165.8,1444.5h22.9v-22.9h-22.9V1444.5z"/>
	<path class="st2" d="M351.7,1444.5h22.9v-22.9h-22.9V1444.5z"/>
	<path class="st2" d="M567.1,1444.5H590v-22.9h-22.9V1444.5z"/>
	<path class="st2" d="M788.2,1444.5h22.9v-22.9h-22.9V1444.5z"/>
	<path class="st0" d="M73.8,1418.5c1.6-1.6,3.5-2.4,5.7-2.4h1033.7c2.2,0,4.1,0.8,5.7,2.4s2.4,3.5,2.4,5.7v18.9
		c0,2.2-0.8,4.1-2.4,5.7s-3.5,2.4-5.7,2.4H79.5c-2.2,0-4.1-0.8-5.7-2.4s-2.4-3.5-2.4-5.7v-18.9C71.5,1422,72.2,1420.1,73.8,1418.5z
		 M73.8,1376.9c1.6-1.6,3.5-2.4,5.7-2.4h1033.7c2.2,0,4.1,0.8,5.7,2.4s2.4,3.5,2.4,5.7v20.7c0,2.2-0.8,4.1-2.4,5.7s-3.5,2.4-5.7,2.4
		H79.5c-2.2,0-4.1-0.8-5.7-2.4s-2.4-3.5-2.4-5.7v-20.7C71.5,1380.4,72.2,1378.5,73.8,1376.9z"/>
	<path class="st9" d="M514.3,1459.9c1.6-1.6,3.5-2.4,5.7-2.4h591.4c2.2,0,4.1,0.8,5.7,2.4s2.4,3.5,2.4,5.8v96.6
		c0,2.3-0.8,4.2-2.4,5.8c-1.6,1.6-3.5,2.4-5.7,2.4H520c-2.2,0-4.1-0.8-5.7-2.4c-1.6-1.6-2.4-3.5-2.4-5.8v-96.6
		C512,1463.4,512.7,1461.5,514.3,1459.9z"/>
	<path class="st9" d="M73.8,1460c1.6-1.6,3.5-2.4,5.7-2.4h416.2c2.2,0,4.1,0.8,5.7,2.4s2.4,3.5,2.4,5.8v96.5c0,2.3-0.8,4.2-2.4,5.8
		c-1.6,1.6-3.5,2.4-5.7,2.4H79.5c-2.2,0-4.1-0.8-5.7-2.4s-2.4-3.5-2.4-5.8v-96.5C71.5,1463.5,72.2,1461.6,73.8,1460z"/>
	<path class="st10" d="M1020.1,1523.8c0-9.6,3.4-17.8,10.2-24.6c6.8-6.8,15-10.2,24.6-10.2s17.8,3.4,24.6,10.2
		c6.8,6.8,10.2,15,10.2,24.6s-3.4,17.8-10.2,24.6c-6.8,6.8-15,10.2-24.6,10.2s-17.8-3.4-24.6-10.2S1020.1,1533.4,1020.1,1523.8z"/>
</g>
<path class="st2" d="M986.3,370.6h87.8c2.2,0,4-1.8,4-4v-19.9c0-2.2-1.8-4-4-4h-87.8c-2.2,0-4,1.8-4,4v19.9
	C982.3,368.8,984.1,370.6,986.3,370.6z"/>
</svg>
